/* XPM */
static char *bd35389ead2c47d7882a072028464d98x1LVWJR0pJr4Qasf[] = {
/* columns rows colors chars-per-pixel */
"48 48 230 2 ",
"   c #3F0103",
".  c #440104",
"X  c #4A0205",
"o  c #4B0409",
"O  c #4A0A0D",
"+  c #550306",
"@  c #5D0405",
"#  c #530308",
"$  c #5C0509",
"%  c #57090B",
"&  c #4D0D11",
"*  c #4F0F13",
"=  c #5A1518",
"-  c #620405",
";  c #6A0506",
":  c #640608",
">  c #6B0609",
",  c #68090A",
"<  c #7C0506",
"1  c #740508",
"2  c #7C0A0C",
"3  c #740E11",
"4  c #7A0C11",
"5  c #661417",
"6  c #641B1E",
"7  c #6C1A1D",
"8  c #741215",
"9  c #7C1416",
"0  c #74151A",
"q  c #7B1519",
"w  c #731A1C",
"e  c #791818",
"r  c #5E1D21",
"t  c #671D21",
"y  c #711D21",
"u  c #7D1D25",
"i  c #682123",
"p  c #792325",
"a  c #7A2F35",
"s  c #73364E",
"d  c #773956",
"f  c #725F5E",
"g  c #776B53",
"h  c #79456B",
"j  c #735676",
"k  c #726B7A",
"l  c #820506",
"z  c #820709",
"x  c #8A0708",
"c  c #830A0B",
"v  c #8B0A0B",
"b  c #930B0B",
"n  c #9C0C0C",
"m  c #870C12",
"M  c #9C0F11",
"N  c #841316",
"B  c #8B1216",
"V  c #82151A",
"C  c #85191C",
"Z  c #8C191E",
"A  c #931215",
"S  c #9C1314",
"D  c #951A1B",
"F  c #A20D0E",
"G  c #AD0E0D",
"H  c #B20E0E",
"J  c #BB0F0D",
"K  c #AC100F",
"L  c #B3110F",
"P  c #BC100E",
"I  c #A80E10",
"U  c #A41313",
"Y  c #AC1212",
"T  c #AD1B1D",
"R  c #B41311",
"E  c #BB1312",
"W  c #B41819",
"Q  c #8B1C21",
"!  c #951E24",
"~  c #9A1D21",
"^  c #882629",
"/  c #96282A",
"(  c #8B2B32",
")  c #972C31",
"_  c #893339",
"`  c #963438",
"'  c #A62B2D",
"]  c #B4292C",
"[  c #B42D30",
"{  c #A83637",
"}  c #B7383A",
"|  c #C9110F",
" . c #C41313",
".. c #CB1514",
"X. c #C11C1D",
"o. c #C62B2D",
"O. c #CD2E32",
"+. c #D73334",
"@. c #E83637",
"#. c #A55837",
"$. c #8D723D",
"%. c #D0733C",
"&. c #853649",
"*. c #973D43",
"=. c #8C3B51",
"-. c #C83C40",
";. c #9B464C",
":. c #88415C",
">. c #9C4C52",
",. c #9A4C5C",
"<. c #8E5C51",
"1. c #AB4347",
"2. c #B34146",
"3. c #B7474B",
"4. c #A2564D",
"5. c #A64B53",
"6. c #B74D51",
"7. c #A7565A",
"8. c #BA5457",
"9. c #8B6650",
"0. c #B5754D",
"q. c #864C6A",
"w. c #AE5C63",
"e. c #AC656B",
"r. c #B5676C",
"t. c #B46C72",
"y. c #BD7379",
"u. c #C94748",
"i. c #C46769",
"p. c #C6777C",
"a. c #738847",
"s. c #99923A",
"d. c #F7BA1E",
"f. c #D78E2F",
"g. c #D78833",
"h. c #E38C25",
"j. c #CEAD3B",
"k. c #D7A93A",
"l. c #DCB738",
"z. c #EFAC2D",
"x. c #ECB72B",
"c. c #F6B927",
"v. c #FCBD22",
"b. c #E4AB35",
"n. c #E5B833",
"m. c #FCC31D",
"M. c #FECA1B",
"N. c #FCCC18",
"B. c #FFD017",
"V. c #DBC237",
"C. c #F5C422",
"Z. c #FCC221",
"A. c #B29E53",
"S. c #B19854",
"D. c #94956F",
"F. c #8A9479",
"G. c #91A072",
"H. c #A5A16A",
"J. c #CD9846",
"K. c #C7A948",
"L. c #D3AC44",
"P. c #3B5EAA",
"I. c #2E66BF",
"U. c #2E68BF",
"Y. c #3767B6",
"T. c #3D6AB3",
"R. c #3A6CB4",
"E. c #3366BB",
"W. c #346ABD",
"Q. c #595794",
"!. c #535B90",
"~. c #695688",
"^. c #67588A",
"/. c #4D679B",
"(. c #57659A",
"). c #5A7398",
"_. c #776797",
"`. c #697191",
"'. c #4B5EA4",
"]. c #4767A6",
"[. c #5768AB",
"{. c #4A74AA",
"}. c #5479A5",
"|. c #476CB7",
" X c #4373B4",
".X c #1E73CE",
"XX c #1C76D2",
"oX c #1778D7",
"OX c #1A79D5",
"+X c #167BD9",
"@X c #197CD9",
"#X c #2E67C1",
"$X c #266DC6",
"%X c #2D69C3",
"&X c #266DC9",
"*X c #2A6EC8",
"=X c #3067C1",
"-X c #3069C2",
";X c #2273CC",
":X c #2A74C8",
">X c #3C71C1",
",X c #2077D1",
"<X c #955F82",
"1X c #89648A",
"2X c #C77C82",
"3X c #5D809C",
"4X c #7A8F87",
"5X c #638197",
"6X c #4F88A8",
"7X c #819683",
"8X c #CC858A",
"9X c #D5878C",
"0X c #CF8A92",
"qX c #D58D94",
"wX c #D5929A",
"eX c #D99398",
"rX c #DB959C",
"tX c #E0979B",
"yX c #DD9DA3",
"uX c #DDA4A7",
"iX c #E2A6AC",
"pX c #E4ACB2",
"aX c #E8B5BA",
"sX c #EABDC1",
"dX c #ECC4C9",
"fX c #F0CDD1",
"gX c #F3D5DA",
"hX c #F8DDE1",
"jX c #FBE5E8",
"kX c #FFF4F4",
/* pixels */
"=X=X-X-X%X}.x.m.M.M.v.b.].^.$.<.].#X%X%XOX+X&XR.l.m.g.%.d.N.M.M.v.b.(.%X%X%X%X%XI.#XXX@X^.#.<.^.",
"I.#X%X%X%X{.k.z.k.l.c.k.(.<.a.g P.#X%X%XXX,X|._.L.b.f.g.d.M.M.m.k.J.].#X%X%X%X*XI.I..X:X9.a.g '.",
"#X%XOXXX%XE.<.<.T.).x.b.].!.g f Y.#XOXOX[.<X8.u.u.8.J.Z.m.m.v.x.).T.E.-X#X#XXXOX*X%X%X%X/.f f P.",
"I.%XOXXX%X%X].'.#X{.k.k.].%XY.E.I.U. X1X6.8.3.} [ o.} %.z.x.b.k.].#X-X-X%X%XXXOX*X-XU.%X%XY.Y.#X",
"%XI.%X$XOXXX%X#X%XW.].].;XXX%X-X[.1X5.} 6.3.2.-.O.o.] ' { 4._.].E.#XI.%XXXOX$X%X%X%X%X%X%X%X#X#X",
"-X#XI.%XOXOX%XI.%X%X#X%XOX@X|.1X5.{ { 6.2.2.2.-.+.O.o.o.' / ` q.[.-X#X%XOX+X*X%X%X%X%X%X-X-X-X-X",
"%X%XXX.X&X*X%X%X#X#X%X%X|._.>.` ) 1.6.1.2.2.2.-.@.@.O.o.o.] ^ ^ ` q.[.-XOX+XXXXX%X%X;X,X%X%X-X-X",
"#X%X@XOX%X-X-X%X#X%X|._.5.` / ) 1.3.1.2.2.2.2.-.@.@.@.O.o.o.] ^ p p &.j  X@X+XOX%X#XXX@X*X#X%X%X",
"%X%X&X$X#XI.#X%X>X_.,.` / ) { 1.3.2.2.2.2.2.2.-.@.@.@.@.O.o.o.] / p y p &.~.|.*X%X%X*X&XR.D.H.H.",
"-X%X%X#X-X%X|._.,.` / ' ' } p.i.8.u.8.6.3.3.3.-.@.@.@.@.+.+.+.u.i.( p y t p &.j [.-X%X%X Xl.M.Z.",
"%X{.D.4XY.(.,.) / ' } 2.3.8.0XqXqXqXqXqXqX9X9Xi.' ' ' / / ^ ^ ^ ` ;.*.` ( p p p &.~.-X;XR.l.m.v.",
"%X).Z.k.(.*.( *.5.7.e.e.e.t.0XwXrXrXyXyXyXiXiXp.q 8 8 8 8 0 0 0 q *.>.>.>.;.*._ ^ ( (.+XR.l.M.v.",
"#X).Z.L.^.^ _ 7.e.e.e.e.t.y.wXrXyXyXiXiXiXiXpXp.V 9 9 9 9 q 0 0 q ( >.>.>.>.;.;._ p h ;XW.D.S.x.",
"%X}.S.D.^.p w _ 7.e.e.t.t.8XyXyXiXiXiXpXpXpXaX2XB N N V 9 9 q q 9 ^ >.>.>.>.;._ i 6 :.W.-X%XT.L.",
":X*XE.I.Q.i 7 w a 7.t.t.y.wXuXiXiXpXpXaXaXaXsX8XA B B N V V V q q C ;.>.5.;._ i r 7 :.W.W.5X4Xl.",
":X:XI.%XQ.6 6 y w p 7.t.2XyXiXpXpXaXaXaXaXsXdX8XS A A B B N N V V V *.5.5.a r r r 7 :.-X Xl.Z.v.",
"I.I.%X%XQ.6 = y y y ^ 7.0XiXpXaXaXaXaXsXdXdXfX9XS S S A A B B N N V ) 1.a r r r r 7 :.-X Xl.v.z.",
"OXOXOX+X(.6 & 7 y y w ` t.yXaXaXaXsXdXdXdXfXfXqXU U S S S A A B B B ~ ^ t r r r = 7 :.E.T.A.f.#.",
"+XoXOXoX(.6 & 6 7 w ^ r.^ ( 8XaXdXdXdXfXfXgXgXeXY Y U U S S A A A U S 9 y t r r 6 w :.E.-XY.].!.",
"+XXX*X%XQ.7 & = 7 p r.8X^ 1 V 6.iXfXfXgXgXgXjXeXW R Y Y U U S U Y Y M , 8 y t 6 6 w :.W.%X%X%X#X",
"+XXX%X%X^.7 & = y 7.0X0X( 2 c x / p.dXhXhXjXjXtXE E R R Y Y R R R Y n , : 8 7 6 7 e :.W.%X-X#X#X",
"*X*X#X%X^.7 & & 5.0XqX0X) c v v v A 1.uXjXjXkXtXE  .E R R R R R R R F , - - 8 w 7 e :.;X%XI.I.-X",
"-X-X%X%X^.w & a 8XwXwXqX/ c v b b b b D y.fXkXtXE E E E E E R R R L n , - @ - 3 q 9 :.OX*XI.-X-X",
"%X%X%X X0.e % w.wXwXwXqX) v b n n n n n b { uXeXE E E E E E R R L L F , - - @ : 9 9 =.%X;X;X%X-X",
"%X%X%X}.f.9 0 p.wXwXwXwX) v b n n n n n n n A / n L E E E E R R L H F ; - - @ - 3 2 =.E.XX@X&X%X",
"#X#X%X}.g.5 $ 7.wXrXrXrX' b n n n F F F n x 1 b F b G L L R L L L G F ; - - @ ; ; ; =.E..X+X6X7X",
"%X#X%X}.g.5 o 0 p.rXrXrX' b n n F F F b z 2 c F ..H b n L L L H H G F ; @ @ ; 1 - - &.E.XX+XG.N.",
"(.).F.H.g.5 O + ( 9XyXrX' n n F F n x z x v x F .... .n v F G G G G F ; @ - 1 $ + - &.E..X+XG.B.",
"a.s.N.B.h.5 O # + ;.rXrX' n F F b z v n n b x F ...... .F x b G G G F : @ > $ . X - &.E.XX+X4Xj.",
"g 9.K.j.h.5 O + + $ r.tX{ n n x x U Y F n n v F .... . . .G x x F G n : : + . . X - &.E.XX+X;XU.",
"E.E.E.).g.5 O + + + 5 p.{ x c U E E R Y F n b F ...... .E J H b < b n > % X .   . - &.W.XX+X+X@X",
"-X%X#X{.0.5 # + + # X i C b E .. . .E Y I n n F .... . .E J H G n < 1 : X .   . . - &.E.XX+XOXOX",
"-X#X-X-X~.7 % @ + # + N M G ...... .E R Y F n I .... . .P L H G F l + X X . . . . - &.E.XX+X$X%X",
"%X%X-X%X^.w > - + + ; T X.x b L .... .E R U n I .... .E P L G b 1 : # X X . . . . @ &.W..XOX%X#X",
"OXXX%X%XQ.C b x 2 ; ; 2 W n l l b R  .E R Y F I  . . .E H F c ; - $ # X . . . . . + d XX$X%X%X%X",
"+XOX%X%X(.D G J  .F 2 ; c n x l < l n R E R I G  . . .H b 1 : : : % X X X . . . . + d OX%XI.%X%X",
"+XOXXX.X]./ H P | | J v 1 z x l l < < l n R Y G  . .F 2 ; ; : : : # o o X X X . . , j @X*X-X-X-X",
"+X@X@XOX=X~.) S U K P P F z x x l l < < 1 l n G L v > ; ; ; : : $ # # # o o o # 5 d *X+X*X%X%X%X",
"&X&X&X$X;X;X].h ( N N A F F x < < 1 1 1 ; ; ; m c 2 2 2 2 c 2 2 ; # # O O & 7 s Q.E.$X&XW.7XD.F.",
"=X=X#X%X+X@X%X=X'.h ( V q B 3 , 3 8 q q V C Q C 4 4 4 4 m m m A 8 O O & t d Q.Y.-X-X#X#X XV.M.M.",
"#X XF.F.7X4XW.I.%X%X].h ( C 0 5 0 Q ! ! ! ! ! Z 4 4 4 4 4 4 N w & & 6 s ].,X.X&X%X%X#X%X Xl.M.Z.",
"%X).C.Z.M.k.T.#XI.%X+XOX'.h ( q 5 5 Q ! ! ! ! Z 4 4 4 4 4 V 7 & 6 s Q.E.OX+X+X+X%XI.-X-X Xl.M.v.",
"&X3Xc.v.Z.k.T.#XI.%XOXOX%XI.].h ^ 5 = C ! ! ! Z 4 4 4 4 q 5 w ` ^.E.%X%XOX+XXXXX&X%X%X%XR.H.K.x.",
"+X6XC.Z.Z.k.T.%XI.%XOXOX%X#X%X-X'.:.u 5 q ! ! Z 4 4 9 e y a f.x.}.%X%X%XOX@X%X%XOX+X%X=X-XE.].L.",
"oX6XC.m.v.k.T.%XI.%XXX,X{.}.W.#X%XW.Q.d u q ! Z 3 9 Q s j `.n.x.).#X-X%XOX@X$X%XXXXX%X#X-X X}.j.",
"%X5Xm.Z.v.k.T.%XI.%X%X{.V.l.{.#XI.#X%XW.Q.d ^ Z Z _ ~.].L.x.g.%.].%X#X%XOX+XOXOX*X%X%XY.].K.x.C.",
"#X5XC.c.z.J.T.%X#X%X%X{.l.k.{.#X#X#X%X%X%XE.Q.j 4.k  X}.l.m.f.0.].%X#X#XXXOXOXOX*X%XT.k a.b.Z.v.",
"%X5XC.k.).].E.%XXX,X%XW.}./.E.%XXXXX%X%X-X%X%XW.K.n.l.l.c.v.c.k Y.-X#X#X%X*X%X*XXX,Xk $.a.k.c.v."
};
