/* XPM */
static char *_b28e1e341eb436580a6ac8a599d765a60mwwmvZflMoT75Y[] = {
/* columns rows colors chars-per-pixel */
"48 48 237 2 ",
"   c #030202",
".  c #0A0806",
"X  c #170D07",
"o  c #1A1208",
"O  c #0E1114",
"+  c #151819",
"@  c #220F07",
"#  c #24120A",
"$  c #2A1709",
"%  c #2C150B",
"&  c #31170B",
"*  c #34190C",
"=  c #3C1C0C",
"-  c #291A12",
";  c #391D11",
":  c #38260D",
">  c #33280D",
",  c #3B2515",
"<  c #181F25",
"1  c #1D262B",
"2  c #252525",
"3  c #272828",
"4  c #2A2B2B",
"5  c #342C28",
"6  c #2B302F",
"7  c #28363C",
"8  c #333334",
"9  c #383837",
"0  c #3A3A3B",
"q  c #431F0B",
"w  c #411F11",
"e  c #46270D",
"r  c #4C230D",
"t  c #54270E",
"y  c #58340E",
"u  c #442112",
"i  c #4C2413",
"p  c #4A2A15",
"a  c #522713",
"s  c #542914",
"d  c #5B2B15",
"f  c #592D1A",
"g  c #493614",
"h  c #593417",
"j  c #69310F",
"k  c #622D16",
"l  c #612E19",
"z  c #683817",
"x  c #65301A",
"c  c #6C341B",
"v  c #743517",
"b  c #72361B",
"n  c #75391D",
"m  c #7B3B1E",
"M  c #473525",
"N  c #553D2A",
"B  c #433C3A",
"V  c #7A3D20",
"C  c #2F433D",
"Z  c #3B423F",
"A  c #5A461C",
"S  c #67481B",
"D  c #79431A",
"F  c #6C541D",
"G  c #77551C",
"H  c #59442D",
"J  c #494339",
"K  c #574736",
"L  c #54523A",
"P  c #69482B",
"I  c #6B5427",
"U  c #795927",
"Y  c #695A38",
"T  c #7B6529",
"R  c #756337",
"E  c #2B3842",
"W  c #363E44",
"Q  c #28444A",
"!  c #394548",
"~  c #31524E",
"^  c #284D56",
"/  c #384A55",
"(  c #3B5457",
")  c #265964",
"_  c #2C626D",
"`  c #2B6673",
"'  c #2C6876",
"]  c #444444",
"[  c #484747",
"{  c #4B4B4D",
"}  c #544D47",
"|  c #425649",
" . c #59524B",
".. c #4C4E51",
"X. c #4E5154",
"o. c #465857",
"O. c #525355",
"+. c #5C5751",
"@. c #535659",
"#. c #55595C",
"$. c #5A5A5D",
"%. c #695847",
"&. c #6D5948",
"*. c #645B56",
"=. c #59625B",
"-. c #78634A",
";. c #6C635B",
":. c #475A65",
">. c #545E60",
",. c #5B5E61",
"<. c #5D6164",
"1. c #5C656A",
"2. c #4E6674",
"3. c #526773",
"4. c #556A76",
"5. c #626365",
"6. c #646669",
"7. c #64696D",
"8. c #6A6A6D",
"9. c #736E66",
"0. c #787269",
"q. c #656D72",
"w. c #6C6E72",
"e. c #6B7378",
"r. c #737475",
"t. c #767778",
"y. c #797A7B",
"u. c #813E1F",
"i. c #823E20",
"p. c #893F21",
"a. c #87481D",
"s. c #88581B",
"d. c #965818",
"f. c #9C641B",
"g. c #AA6918",
"h. c #B37219",
"j. c #844122",
"k. c #8C4323",
"l. c #884922",
"z. c #944924",
"x. c #974924",
"c. c #855A23",
"v. c #995424",
"b. c #A55724",
"n. c #886628",
"m. c #8F6E2E",
"M. c #956A2A",
"N. c #97762B",
"B. c #886734",
"V. c #977935",
"C. c #A86626",
"Z. c #B56924",
"A. c #A97829",
"S. c #B47629",
"D. c #A57838",
"F. c #C57A14",
"G. c #8E6D4E",
"H. c #937C43",
"J. c #847769",
"K. c #857D73",
"L. c #827F78",
"P. c #9E8333",
"I. c #BA842A",
"U. c #AA8A35",
"Y. c #B48635",
"T. c #AD923D",
"R. c #B89437",
"E. c #C9851D",
"W. c #D58817",
"Q. c #DD921C",
"!. c #E99719",
"~. c #ED9A1A",
"^. c #F39E1A",
"/. c #F6A21A",
"(. c #CB8C23",
"). c #D29223",
"_. c #C49938",
"`. c #9C834D",
"'. c #A68B49",
"]. c #B89B46",
"[. c #AE9152",
"{. c #BCA248",
"}. c #88827A",
"|. c #8C847A",
" X c #AB9667",
".X c #BCA56B",
"XX c #CAAA47",
"oX c #CEB050",
"OX c #E2BC49",
"+X c #D0B76D",
"@X c #DDC153",
"#X c #F0C74A",
"$X c #E7C756",
"%X c #F5D559",
"&X c #DCC579",
"*X c #E8CC69",
"=X c #F5D965",
"-X c #E8CE70",
";X c #EAD274",
":X c #F4DB77",
">X c #F8E271",
",X c #5D7682",
"<X c #677D88",
"1X c #787D82",
"2X c #6A828D",
"3X c #7A8389",
"4X c #7B848A",
"5X c #7A8C95",
"6X c #748E98",
"7X c #7F9AA3",
"8X c #858887",
"9X c #969188",
"0X c #828C93",
"qX c #879399",
"wX c #89959C",
"eX c #9B9892",
"rX c #849DA7",
"tX c #8D9AA2",
"yX c #919EA6",
"uX c #92A8B2",
"iX c #CBB286",
"pX c #DAC787",
"aX c #E8D485",
"sX c #E6D38F",
"dX c #F2DD85",
"fX c #FAE888",
"gX c #F7E699",
"hX c #DAD0AB",
"jX c #E9DCA6",
"kX c #EBDBAE",
"lX c #F6E8A7",
"zX c #ECE2B8",
"xX c #F5EBB9",
"cX c #F5ECC5",
"vX c #F6F0C9",
"bX c #F9F3D6",
"nX c #FAF8E3",
/* pixels */
"  O ( 4.2X:.O g m.U.M.z x c D m.T.{.T $ F oX+X+X].M.y y M.].T.m.y @ o g m.V.R.R.F + ( o.! 7 O   ",
". E 6XuX6X( 5 XX=X%XdX+XC.d.oX>X>X>XOXS _.:XvXnXbXaXI.S.OXgXgX:X+Xz e .XdX=X#X#XR.J <X,X2X4.6 . ",
"< :.uX2X:./ 3 H.gX:X=XgX+Xg.oX-X-X+XY.z N.$X-X;XlXsX_.g._.*XlXvXjXn.m.zXbXsX%X#XF ] qX2.2.2X! + ",
"1 <X2X:./ ( 4 : T.@XdXcXsXS.b.C.d.d.Z.a.j s.A.I._.A.d.d.s.M.[. Xs.e n.&XcXkX&XV.# W tX2.2.3.:.+ ",
"+ :.( / ! W - o z a.D.'.S.C.b.b.l.a.b.n r t D C.Z.Z.Z.Z.Z.C.a.y t % z C.D.C.a.q $ + q.4.2.2.( O ",
"  3 [ [ 0 - # p V x.v.b.b.b.v.D d j j j t r a D l.v.C.Z.Z.Z.Z.D u ; j.v.b.x.s = = X f 9.q.=.Z . ",
". T ].D i % w n j.x.x.v.v.m a r t h P %.;.9.r.r.t.r.K.J.G.B.v.D q z b.v.j.d q q = * m n U oXm.. ",
"A $XgXD.r % b c s n i.x s t f  .0.0XwXtXyXyX5Xq.0XyXyXyXyXwXy.;.N c v.b.b.a.r q q & x v .XcX@Xg ",
"n.%XlX`.@ X = = l n d u M *.3X3X4XtXtXwXwXyX0X7.4X0XwXtXtXtXqX1X3Xr. .D v.b.D i * @ o = +XlX%XT ",
"N.%X>XY.v l ; % = = p  .3XtXqX<.1.0X0X1Xt.e.7.<.<.#.7.e.4XqX4X<.<.3X0X5.N D x.s # % i e oX%X%XA ",
"N.%X:XD.v m j.V w 5 ,.e.5XwXwXe.#.O.0 8 4 4 4 4 4 4 3 4 9 ] #.1.e.3Xw.w.w.J i f b j.j.d XX%X$Xg ",
": oX&XS q i x m d  .6.<.3X5X<.W 4 3 3 4 4 3 3 3 3 3 3 3 3 3 3 8 { 7.q.6.t.] f j.x.x.k.r n.$XU.X ",
"  I S % * ; * & = +.0X3Xq.0 4 3 3 4 4 8 ] O.#.<.$.O.{ 0 4 4 3 3 4 4 ..0Xw.] f x.v.x.i.u p N.y   ",
"  @ i c m u.c ; @ 5 q.@.3 2 3 4 4 ] 5.r.y.y.y.1Xy.1X1Xy.8.O.0 4 4 2 9 7.6.O.f j.m x u = * G A.$ ",
"  $ b a.k.k.j.m i J e.e.X.2 4 4 { t.r.y.8.O. . .+.$.8.r.t.t.5.4 4 4 0 ....O.i i u u i p p XX*Xn.",
"> U.A.D b c b k.k *.tXwX7.3 4 4 O.5.,...7 5 f.g.s.M 7 ! #.6.$.8 { 0 { q.,.@.p V j.j.i.d z &XcXH.",
"U.$X;Xn.& % * d s *.tXwXe.4 4 8 { +.N 7 ) | Q.~.E.Y _ ^ 9  .{ 9 8.5.@.3X1X$.f i.m c a % h sXvX-.",
"R.-XxXB.@ % ; * * 9 q.e.,.3 4 9 U g.g.( ` | Q.^.!.Y ` ) R F.d.M 8.6.O.6.1XO.i s s i * # e +XhXg ",
"R.jXvXD.v i.i.c * 8 @.O.{ + 4 0 c.g.s.Z / [ B.M.m.} ( / I h.f.M 8.6.X.,...! % D j.j.j.x * I I   ",
"_.kXzXv.m k.k.m r [ e.7.<.2 4 0 n.S.M.9.t.r.t.t.t.y.y.r.D.!.E.M 7.6.@.1X4X..a v.k.x.x.m r y S X ",
"n.&XoXm x n m d = } 0X0Xq.3 4 0 n.E.M.y.t.8.r.r.r.w.y.r.R Q.W.M 6.6.6.wXwX6.V k.k.x.j.x y R.$XV.",
"X n.D i & * ; ; @ { wXqXq.3 4 0 A.~.V.t.8.w.r.r.t.r.8.8.-.W.W.M 6.6.6.qX0X7.f x f u = = G OXgXpX",
"X n.P.e q c n V s  .wXwXq.4 4 0 A.~.A.8.6.8.5.5.8.w.8.8.B.Q.W.M 5.6.6.wX3X<.* i a u * & c.$XbXpX",
"R aX*Xs.r m k.p.s *.4X3Xq.3 4 9 S d.D 0 ! ! K K K ] ! ! A d.s., <.6.6.4X1XO.f k.x.x.k.u.Y.;XcX.X",
"+XnXcXM.q x k.u.i B @.,.@.2 4 0 n.F.g.C ^ C h.F.F.H ) Q S h.h.M O.O.$.O.q.@.f k.x.x.k.k.A.*XaXI ",
"jXbXjXn.= = s i % ] e.e.6.3 4 9 A./.W.( ' ( )./.~.Y ' ) n.S.n.M #...[ q.3X,.o i f d l c c Y.V.X ",
"aXgX*XS @ % u p = { qXqXq.3 4 8 U ^.W.o.' ( ).^.~.Y ` ) U -.@.$.8.#.{ 4XwX1.p j.j.c i u = s g   ",
"].#XR., u l m b a } qXqX,.4 4 9 m./.W.o.' ( ).^.~.Y _ ) U &.0 J { 9 O.qXwX6.b j.k.i.k i * m.XXA ",
", N.e l u.j.j.x = [ 0X0X,.3 4 0 M.Q.E.o.' ( (.~.~.Y _ ) n.s.S M ] ] #.qXwX6.c i.x.k.l a U aXgX].",
"$ [.U s c m i.x = B 0X0X7.3 4 0 J c.c.( ' ~ (.~.!.Y ` ) m.~.W.H ,.,.5.qXqX,.f i.k.k.k s '.bXxX{.",
"R xXiXa * w s a * B 4X0X1.3 4 0 } B.n.( ' ~ (.^.~.Y ` ) m.^.W.H 8.5.,.qXqXX.X ; d d i = '.bXlX].",
"`.xXpXl.l s w * % 0 q.<.X.3 4 0 m.~.W.o.` ~ (.!.!.Y ` ) n.S.I 9 6.5.$.0XqX@.X * a a a a R.dX:XT.",
"V.dXOXc.c x x x u 8 X.$.5.4 4 0 M.~.E.o.` ~ E.!.!.Y ` ) J Y M.N #.5.<.,.1.[ p k.j.V m n c.XXoXA ",
"T OXXXa.m n b l & B 7.$.<.4 4 0 C.F.h.o.` ~ E.^.!.Y ` ) Z I.Q.H 5.6.5.O.,.] f n c m u.n d s.S . ",
"o m.G d m m m d % 5 X.#.#.2 4 0 n.M.U ^ ` ~ M.W.Q.L ` ) Z D.W.H 8.6.5.$.O.O.a d l m m c s D y . ",
"> [.T u n m c = % 4 @.,.9 2 4 0 n.Q.U ^ ` Q J A.M.! ` ) I n.c.H 8.6.$.@.#.#.u r i f n d S +X].> ",
"H.kXsXA s x u % @ ] qX0X>.3 4 0 M.h.Y Q Q 7 O.%. .! ^ Q I A.f.N 8.5.O.O.@.#.; r = & = = V.gX=XV.",
"oXjXgXT X # @ # % ] 0X5X7.3 4 0 K 5.8.8.5.$.6.w.w.8.6.6.8.5. .B 8.5.] [ O.{ X # # % % @ `.lX%XR.",
"R.=XfXH.% * ; a w ] q.6.#.3 4 8 ..5.5.w.6.] <.r.6.7.w.w.8.5...0 6.5.{ X.#.W - p d x l i `.xX=XT.",
"P.=XgX[.d x x l * B 1.,.@.- 2 8 0 0 0 ] ] 0 ] [ ] ] [ [ ] 9 8 8 O.{ ..t.7.X.; = u p ; = `.cX=XT.",
"I $XdXD.v b b x & 5 <.<.{ 5 +.9.9.9.0.0.0.L.}.8X8X8X}.0.0.9.9.9.9.9.+.<.1.] % % & * % # P pX@XA ",
". n.].z x l p ; - B }  .+.9.K.K.}.}.}.|.9XeXeXeXeXeX9X9X|.|.}.K.K.K.0.*.+.} , # # # # # # S T . ",
". 9  .<.#.- % ; , M H %.;.9.0.J.K.K.}.|.|.|.|.|.|.|.|.|.}.K.K.K.J.0.;.&.K N p , * # - @.1.>.! . ",
"O :.6X6X4.1., , , p A U U h M N H P Y &.&.-.-.-.-.-.-.&.&.Y K H N h S `. XH.I g , , q.<X6X7Xo.O ",
"+ / 2.rX6X2X[ e N.+XkXzXaXm.p S m.'.'.U h h G N.U.R.V.S h S V.'.'.B.n.sXxXgX;XoXS ] 7X6XrX:.W + ",
"O E :.3.<Xe.J U $X=X:XxXkXU S oX>XgXlX&Xc.V.pXxXgX:X$XU.U +XfXfXlXaXG [.>X:X=X>X].L 2X2X:./ E + ",
". < Q ( / :.J Y.#X#X#X*X'.p U @X=X=X*X'.G +XxXvXxXdXOXN.n.*X=X=X;X'.y h P.XX$X*XXXK 2./ / W 1 . ",
"  . < 6 7 6 + G _.XXU.n.g , e S V.N.G y h c.oX-X-XoXV.: : F U.m.A : - - * g F F : O 6 7 7 1 O   "
};
