/* XPM */
static char *_d093bcf78574551cc776b5b41729b5bbKHnC3JQ7PTbzopM[] = {
/* columns rows colors chars-per-pixel */
"48 48 206 2 ",
"   c #725F5E",
".  c #796E4A",
"X  c #73784D",
"o  c #786558",
"O  c #6C5C65",
"+  c #615A78",
"@  c #5E677A",
"#  c #4F7878",
"$  c #66697E",
"%  c #73637D",
"&  c #6C7172",
"*  c #7E7278",
"=  c #A35E3E",
"-  c #94673B",
";  c #867C3E",
":  c #B26738",
">  c #CC773F",
",  c #D47A37",
"<  c #D1763A",
"1  c #8E5E49",
"2  c #965D44",
"3  c #8A5B5B",
"4  c #8A624D",
"5  c #906045",
"6  c #866055",
"7  c #8A7257",
"8  c #BD6E46",
"9  c #816D63",
"0  c #6B8D40",
"q  c #7A8342",
"w  c #63954E",
"e  c #7F8053",
"r  c #99923A",
"t  c #F4B91F",
"y  c #FEBC1E",
"u  c #D88435",
"i  c #DB8D34",
"p  c #D29B37",
"a  c #CEAC3C",
"s  c #D7A935",
"d  c #DBAD36",
"f  c #D4A33C",
"g  c #DBA63A",
"h  c #D4AA3D",
"j  c #DAAA3B",
"k  c #DEB231",
"l  c #DDBC36",
"z  c #D5B53D",
"x  c #DBB23B",
"c  c #DCBB3C",
"v  c #EBA72D",
"b  c #EAAC2D",
"n  c #F4A825",
"m  c #E6B42A",
"M  c #EBB42D",
"N  c #EDBB2B",
"B  c #F9B524",
"V  c #F5BB25",
"C  c #FCBD23",
"Z  c #F1B52A",
"A  c #F3BA2B",
"S  c #F9BD28",
"D  c #E6AB37",
"F  c #E4AE34",
"G  c #E5B235",
"H  c #EBB431",
"J  c #E1B937",
"K  c #ECBC30",
"L  c #F1BD31",
"P  c #FECE16",
"I  c #F4C61F",
"U  c #FDC41D",
"Y  c #FECA1B",
"T  c #DBC237",
"R  c #EAC12A",
"E  c #EBC82B",
"W  c #F5C223",
"Q  c #FDC221",
"!  c #F1C228",
"~  c #E0C332",
"^  c #B68F46",
"/  c #A28F58",
"(  c #AD9655",
")  c #A5935A",
"_  c #B29753",
"`  c #B89C54",
"'  c #BEA649",
"]  c #B1A355",
"[  c #BCA653",
"{  c #8F8E6D",
"}  c #948769",
"|  c #9C9D6B",
" . c #858879",
".. c #8F9A74",
"X. c #85927C",
"o. c #8D9579",
"O. c #959474",
"+. c #949A75",
"@. c #999F70",
"#. c #A28D61",
"$. c #A39A66",
"%. c #97A06D",
"&. c #8EA074",
"*. c #A7A465",
"=. c #A8A666",
"-. c #A4A16A",
";. c #C69947",
":. c #C8A545",
">. c #C6A94C",
",. c #D0AF42",
"<. c #CCB645",
"1. c #DDB540",
"2. c #3B5EAA",
"3. c #3F64AB",
"4. c #3F6DAD",
"5. c #3B70AB",
"6. c #2E66BF",
"7. c #2E68BF",
"8. c #3564B4",
"9. c #3B66B3",
"0. c #3469B4",
"q. c #3D6AB3",
"w. c #3366BB",
"e. c #356BBC",
"r. c #396CBA",
"t. c #2971BF",
"y. c #3776B5",
"u. c #3D70B7",
"i. c #3473BC",
"p. c #3B72BA",
"a. c #58598A",
"s. c #465F9F",
"d. c #4C688E",
"f. c #5C6088",
"g. c #4B6599",
"h. c #5D6F93",
"j. c #56679B",
"k. c #5D7194",
"l. c #54729E",
"z. c #5A749A",
"x. c #676388",
"c. c #637E97",
"v. c #627A98",
"b. c #415EA1",
"n. c #4261A3",
"m. c #4D65A3",
"M. c #4669A4",
"N. c #4B6BA3",
"B. c #4160A9",
"V. c #426AAD",
"C. c #4A6DA9",
"Z. c #4E72A4",
"A. c #4F78A6",
"S. c #4673AE",
"D. c #4B74AB",
"F. c #4A7AAC",
"G. c #5173A4",
"H. c #547AA6",
"J. c #5A79A0",
"K. c #416FB2",
"L. c #4272B3",
"P. c #4873B1",
"I. c #1E73CE",
"U. c #1776D7",
"Y. c #1D76D2",
"T. c #177AD6",
"R. c #1A79D5",
"E. c #167BD9",
"W. c #197CD9",
"Q. c #2E67C1",
"!. c #276CC6",
"~. c #2D69C3",
"^. c #2A6AC4",
"/. c #2F6AC4",
"(. c #2A6CC5",
"). c #256EC9",
"_. c #296DC8",
"`. c #3067C0",
"'. c #3069C2",
"]. c #306BC3",
"[. c #2C72C5",
"{. c #2272CD",
"}. c #2D74CA",
"|. c #2378CE",
" X c #2B79CC",
".X c #3172C2",
"XX c #2075D1",
"oX c #247BD2",
"OX c #3E84B9",
"+X c #5D809C",
"@X c #7E8A83",
"#X c #788D89",
"$X c #7B9181",
"%X c #628096",
"&X c #6E8395",
"*X c #64819A",
"=X c #68839A",
"-X c #728791",
";X c #719291",
":X c #4F87A9",
">X c #528BA6",
",X c #5590A7",
"<X c #2A82CD",
"1X c #858E80",
"2X c #809282",
"3X c #829E84",
/* pixels */
"`.`.'.'./.H.L U Y Y C F C.x.- 5 B.Q.~.~.R.W.(.L.l U u < t P Y Y C D j./././.~.~.6.Q.Y.W.x.= 2 a.",
"6.Q.^.~.~.D.g v d k V j j.1 0 . 2.Q.^.^.Y.Y.!.p.[ d i i t Y U U g ;.N.Q.~.~.^.(.6.6.I.}.6 q X s.",
"Q.^.R.Y.~.w.3 3 3.z.N G M.a.o O 8.Q.Y.R.(.^.Y.R.r.N.z Y U U y Z k.9.w.'.Q.Q.Y.R.(.~.~.~.g.o   3.",
"6.^.R.Y.^.~.n.b.Q.S.h f V.^.8.8.6.Q.Y.R.^.Q.Y.R.!.e.' N m m F f N.Q.'.~.~.^.Y.R.(.'.7.~.~.8.8.Q.",
"~.6.^.!.Y.Y.~.Q./.e.M.M.{.Y.^.~.'.~./.(.~.~.^.^.Y.Y.4.N.N.N.N.M.w.Q.6.~.Y.R.!.^.~.~.~.~.~.~.Q.Q.",
"'.Q.6.^.R.R.~.6.~.~.Q.^.R.R.^.Q.'.'.~.~.~.~.~.Q.Y.R.^.~.Q.~./.Q.Q.Q.6.~.R.E.^.~.~.~.~./.'.'.'.~.",
"~.^.Y.I.!.(.~.~.Q.Q.~.~.^.(.~.'.'.~.{.Y.~.Q.Q.~.Y.E.Y.XX~.Q.{.Y.~.6.6.~.Y.E.Y.Y.^.~.{.XX/.~.'.'.",
"Q.^.W.R.~.'.'.'.6.Q.'.~.6.Q.~.'.`.~.R.R.^.6.Q.~.Y.E.E.R.^.Q.R.R.^.6.6.~.Y.E.E.R.^.Q.Y.W.(.Q././.",
"~.~.!.!.Q.6.Q.~.{.{./.~.Q.~.{.{.{.I.R.R.^.6.Q.~.(.!.!.!.~.~.!.!.{.{.~.~.R.E.{.!.~.~.(.!.r.+.-.-.",
"'././.Q.'.Q.6.~.R.R./.'.~./.R.E.E.E.E.R.^.6.'.'.~.~.~.~.'.'.Q.~.Y.W./.~.R.W.^.6.'.~.~.Q.L.l Y U ",
"/.S.+.@Xe.Q.~.~.!.{. X[.~.~.!.).).{.T.T.I.)./.r...%.S.Q.~.~.~.~.oXoX~.~.R.E.{.!.~.~.!.{.L.c Q C ",
"/.c.Q h 9.~.'.~.Q.~.}.(.Q./.Q.6.w.~.R.E.E.E.^.L.~ I z./.Q.Q.'.~.[.~.6.~.R.E.W.W.^.Q.Y.E.p.l Y Q ",
"Q.c.Q h 9.~.~.6.6.~.^.0.#X#Xr.Q.6.6.{.I.I.I.!..X/ ^ M.Q.Q.Q.~.~.6.6..X[.Y.E.I.{.^.Q.).{.e.{ ( M ",
"/.G._ } 8.~.Q.6.'.'.}.S.E ! G./.Q.6.~.~.~.~.Y.W.f.+ w.Q.'.'.~.'.'.~.}.[.I.W.^.6.'.'.Q.~.'./.r.,.",
"}./.w.6.6.Q.Q.6.Q.Q.6.q.] ` C.Q.6.6.~.~.(.(.{.Y.~.6.6.6.~.~.(.(.~.~.6.6.I.Y.!.^.~.~.6.Q.e.=X@Xx ",
" X[.6.6.Q.Q.'.~.~.~.'.'.8.8.w.'.Q.6.6.Q.Y.R.^.~.~.~.~.~.Q.~.R.W.^.'.'.~.Q.Q.Y.R.^.Q.'.'.K.x Q C ",
"6.6.^.^.^.^.~.~.~.Q.~.~.^.^.Q.Q.Q.6.~.^.Y.Y.^.6.~.'.~.~.6.~.Y.R.(.~.~.~.^.^.I.Y.^.6.'./.K.x C n ",
"R.R.R.R.R.Y.~.~.'.~.~.~.Y.R./.Q.Q.~.Y.R.^.~.~.'.'.Q.Q.~.'.'.~./.R.R./.Q.Y.R.(.~.~.~.~.~.q.` p : ",
"E.T.R.R.R.Y.^.~.'.'.~.^.Y.R.^.~.~.^.Y.R.^.6.~.~.~.~.Q.Q.~.'.~.~.Y.R.^.~.Y.R.^.`.'.'.~.Q.'.8.n.a.",
"E.Y.^.^.^.^.Y.Y.~.Q.~.~.^.^.Y.R.R.Y.(././.~.~.~.Y.R.(.'.Q.Q.XXR.(.^.Y.Y.(.^.~.'.'.~.~.~.~./.~.Q.",
"E.Y.~.6.6.^.R.Y.~.~.'.'.6.~.Y.W.W.R.(.~.'.'.~.~.R.W._.'.Q.Q.Y.W.^.Q.R.R.(.`.~.'.~.'.~.~.'.'.Q.Q.",
"_.(.Q.6.'.~.^.!.Y.{.~.`.'.'.(.(.(.!.Y.Y.~.~.{.Y.W.W.(.Q.'.~.(._./.~.^.!.{.XX^.Q. X X{.Y.^.Q.6.'.",
"'.'.~.~.'./.Q.^.W.R./.Q.'.'.'.`.w.Q.R.E.^.6.Y.W.W.R.^.w.'.'.'.~.'.'.6.Q.R.W.^.6.~.^.Y.E.^.6.'.'.",
"~.~.~.L.@.-.$.o..Xi.+.O.q.~.{.{.{.{.!.!.{.{.!.!.{.{.~.r.+.=.*.| S.~.{.{.R.T.^.6.Q.~.!.!.{.{./.'.",
"~.~./.H.E Y Q G V.S.K H C.^.R.W.W.R./.~.R.W.^.'.'.~.'.L.J Y Y ! l./.R.W.E.E.^.6.'.'.Q.Q.Y.W.!./.",
"Q.Q./.H.R U V H O.O.N A $.1X.X{.).!.~.~.!.{.~.~.~.~.{.[. .) N A A.{.R.R.{.).).).Q.Q.Q.Q.Y.E.:X2X",
"/.Q./.D.N U V C C C Q U U H C.~.`.`.~.~.Q.`.~.~.Q.Q.R.E.^.V.G V F.E.E.R.^.Q.R.E.^.6.'.~.Y.E.&.P ",
"j.h.X.| W C v v C Z _ ( _ #.V.~.!.!.~.~.!.!.~.Q.Q.Q.{.{.!.i./ ^ y.E.E.R.^.6.).{.^.6.Q.~.Y.E.%.P ",
"q r P P Y V < , B j V.Q.Q.Q.Q.~.R.R./.~.Y.W._.Q.'.'.'.~.R.W.# 4 [.E.E.R.(.~.6.6.'.'.6.6.Y.E.$Xs ",
"o 7 ' a W V i i B F @X-X-X&Xr.Q.{.I.!.(.{.|.*X&Xq.~.'.~.R.R.d.g.{.Y.I.Y.{.!.!.!.~.~.6.6.I.E.{.t.",
"8.8.w.z.A Q S V Q Q W W S G C.Q.6.Q.Y.W.(.L.1.A z.Q.~.~.R.E.W.W.^.6.6.~.R.W.W.W.^.6.'./.Y.E.E.W.",
"'.~.Q.D.:.j V Z h h V C V D N.Q.6.6.Y.Y._.p.` :.Z.^.~.~.Y.R.R.Y.^.6.6.~.Y.R.Y.Y.^.Q.~.~.Y.E.R.R.",
"'.Q.'.'.8.k.Z F N.l.R Y C H N.Q.~.'.~.~.R.R.e.9.{.R.(.~.~.~.~.~.'.'.Q.Q.Q.~.Q.~.~./.~.~.Y.E.!.~.",
"~.~.'.~.^.A.M F v.*Xa k g ;.C.Q.'.'.~.~.R.W.^.~.Y.W._.~.~.6.'.'.'.'.Q.6.Q.~.~.~.~.~./.^.I.R.^.Q.",
"R.Y.~.~.R.OXh d h :.h.4.i.i.e.'.6.Q.'.~.R.E.^.6.Y.W.^.'.Q.`.`.`.'.'.'.~.Y.R.R.Y.^.~.Y.R.!.~.~.~.",
"E.R.~.^.T.R.y.5.M.M.w.^.R.R.(.~.6.Q.~.~.Y.R.^.6.Y.R.^.Q.e.e.`.Q.~.~.'./.R.E.R.R.^.Q.Y.E.^.6.~./.",
"E.R.Y.{.!.(._.^.^.Q.'.~.^.!.Y.I.Q.Q.{.Y.!.^.~.~.^.!.I. X=.[ Z.Q.I.Y./.~.R.W.!.^.Q.~.Y.W._.'.'.'.",
"E.W.W.Y.~.'.'.~.6.6.'.'.6.~.R.R.^.6.R.R.^.6.'.'.6.Q.Y.<Xc S z.^.R.E.^.Q.R.W.^.6.7.~.Y.W._./././.",
"!.!.!.!.{.{.~.7.Q.Q.Q.~.{.I.R.R.{.{.!.!.~.Q.Q.Q.6.6.^.i.x V z.Q.(.!.~.~.R.W.^.6.'.~.!.!.e.2X..o.",
"`.`.Q.^.E.R.~.Q.~.~.Q.^.R.E.W.T.E.R./.'.~.~.~.~.~.~.Q.r. .} M.~.'.'.'./.R.W.^.6.'.'.Q.Q.L.T Y Y ",
"Q.S.X.X.3X;Xe.Q.~.~.!.!.{.I.R.R.{.{.{.{.~.~.~.~.Q.Q.6.Q.6.6.!.!.~.6.6.~.R.E.{.!.~.~.Q.~.L.l Y Q ",
"/.c.W Q Y x q.Q.6.^.R.R.~.~.R.R./.~.R.E.^.6.~.~.~.Q.6.`.'.~.R.E._.Q.Q.~.R.E.E.E.^.6.'.'.L.l Y C ",
"!.+XV C U j q.Q.6.^.R.R.~.Q.{.{.~.~.{.Y.!.!.~.~.(.!.!.^.~.e.>X,Xe.Q.Q.~.R.E.Y.Y.!.^.~.~.r.$.:.N ",
"E.>XW Q Q j q.~.6.^.R.R.^.Q.'.'.'.'.~.~.R.E.^.~.Y.E.R.R._.K.l R G./.'.~.R.W.^.~.R.E.^.`.'.w.V.,.",
"U.>XW U C j q.~.6.~.Y.|.F.A.e.~.'.'.~.~.Y.Y.^.Q.{.{.Y.XXF.*Xk M l.Q.'.~.R.W.!.^.Y.Y.^.Q.'.P.J.z ",
"^.%XI Q C j q.~.6.~.^.S.T l Z.Q.6.Q.'.'.~.~.'.e.@ @ ^.u.<.N u > m./.Q.~.R.E.R.R.(.~.~.r.C.>.K W ",
"Q.%XW V b ;.q.~.Q.~.~.D.z x N.Q.Q.Q.~.~.Q.6.~.e.9 $ S.H.l U i 8 m./.Q.~.Y.R.R.R.^.~.r.& e k Q C ",
"/.%XW j k.N.w.^.Y.XX~.e.Z.l.8.~.Y.Y.^.~.'.~.~.r.>.J c c V C A * w.'.Q.Q.^.(.^.^.{.XX% ; w h B C "
};
