/* XPM */
static char *result[] = {
/* columns rows colors chars-per-pixel */
"48 48 237 2 ",
"   c #1D1C1D",
".  c #231D1E",
"X  c #2B201F",
"o  c #1D1E20",
"O  c #1D2E37",
"+  c #2A2B2C",
"@  c #323335",
"#  c #3A3A3C",
"$  c #4C2B1C",
"%  c #4D3536",
"&  c #2C5437",
"*  c #2F6438",
"=  c #297736",
"-  c #49433A",
";  c #724C35",
":  c #507339",
">  c #1C3144",
",  c #3C3C46",
"<  c #2B3853",
"1  c #233D67",
"2  c #413E4A",
"3  c #693D5E",
"4  c #7A3F5E",
"5  c #314655",
"6  c #2D7255",
"7  c #11496E",
"8  c #2A487A",
"9  c #334970",
"0  c #1C6C71",
"q  c #2D6B74",
"w  c #42424A",
"e  c #534C4D",
"r  c #474654",
"t  c #4C555B",
"y  c #6B5453",
"u  c #796852",
"i  c #6E4C67",
"p  c #587579",
"a  c #6B6C79",
"s  c #983315",
"d  c #AC3119",
"f  c #88382D",
"g  c #D61F00",
"h  c #D3280B",
"j  c #E52A09",
"k  c #F03816",
"l  c #90411B",
"z  c #854F37",
"x  c #AA5137",
"c  c #8D723D",
"v  c #AD6B3B",
"b  c #CD6914",
"n  c #D16413",
"m  c #C55F3D",
"M  c #F44623",
"N  c #CD7237",
"B  c #D3763A",
"V  c #8E554C",
"C  c #A04B46",
"Z  c #8B6954",
"A  c #AB6347",
"S  c #B26D4F",
"D  c #AA7657",
"F  c #B67C5A",
"G  c #92526B",
"H  c #8F6E75",
"J  c #AB6E6F",
"K  c #EB4C4B",
"L  c #D8734E",
"P  c #C87556",
"I  c #E47D54",
"U  c #CF7B66",
"Y  c #F37D61",
"T  c #32833D",
"R  c #3A8F44",
"E  c #3C9748",
"W  c #3E964A",
"Q  c #4B904B",
"!  c #419C4D",
"~  c #738847",
"^  c #45A152",
"/  c #4AA455",
"(  c #7F956E",
")  c #99923A",
"_  c #B48C28",
"`  c #CA9E1E",
"'  c #F8BB1E",
"]  c #DB8A33",
"[  c #D29B37",
"{  c #EB912C",
"}  c #D2AF31",
"|  c #D4AA3D",
" . c #D8A838",
".. c #DAAA3B",
"X. c #DBB537",
"o. c #ECA92C",
"O. c #F6AE2E",
"+. c #ECB72C",
"@. c #F4B927",
"#. c #FCBD23",
"$. c #E4AC35",
"%. c #E8B633",
"&. c #FDC31E",
"*. c #FECA1B",
"=. c #FDCC18",
"-. c #DBC237",
";. c #EAC42A",
":. c #F5C322",
">. c #FDC221",
",. c #F1C228",
"<. c #B98C54",
"1. c #AB9556",
"2. c #B39953",
"3. c #B8A34C",
"4. c #959068",
"5. c #8B9579",
"6. c #959874",
"7. c #AD8C71",
"8. c #91A072",
"9. c #A4A16A",
"0. c #CC934D",
"q. c #E9855B",
"w. c #C7A748",
"e. c #D0AF42",
"r. c #CE8C6A",
"t. c #D68865",
"y. c #E68A66",
"u. c #ED946D",
"i. c #F7986B",
"p. c #F79C71",
"a. c #E8A260",
"s. c #E7A77A",
"d. c #FBA575",
"f. c #F9A776",
"g. c #FCAA76",
"h. c #FEAC7B",
"j. c #135E96",
"k. c #29538D",
"l. c #126D8F",
"z. c #0B7797",
"x. c #2A6895",
"c. c #1C5FA1",
"v. c #3C5EAC",
"b. c #1B68A7",
"n. c #0D7AA9",
"m. c #176BB6",
"M. c #1772B5",
"N. c #2965A9",
"B. c #3C66AA",
"V. c #2A67BA",
"C. c #2E66BE",
"Z. c #3564B4",
"A. c #3969B7",
"S. c #3D6AB4",
"D. c #3366BB",
"F. c #346BBD",
"G. c #3271B5",
"H. c #3674B8",
"J. c #59578C",
"K. c #475A9A",
"L. c #6A5D92",
"P. c #4C6E95",
"I. c #586799",
"U. c #597299",
"Y. c #726788",
"T. c #656697",
"R. c #647B98",
"E. c #77799B",
"W. c #415EA1",
"Q. c #4569A3",
"!. c #4868A6",
"~. c #436AAC",
"^. c #546AA6",
"/. c #4B75A9",
"(. c #4B74AB",
"). c #5576A4",
"_. c #416FB3",
"`. c #4472B3",
"'. c #6C78A1",
"]. c #1B6FC4",
"[. c #1E73CE",
"{. c #1C76D2",
"}. c #1779D7",
"|. c #1A79D5",
" X c #167BD9",
".X c #197CD9",
"XX c #2E67C1",
"oX c #276CC6",
"OX c #2D69C3",
"+X c #256EC9",
"@X c #2A6DC8",
"#X c #3067C1",
"$X c #3069C2",
"%X c #2172CD",
"&X c #2B74C9",
"*X c #3171C3",
"=X c #2278D2",
"-X c #8B7389",
";X c #0B88A9",
":X c #1588A6",
">X c #1088B6",
",X c #0D95B8",
"<X c #119BBA",
"1X c #28A4BD",
"2X c #588299",
"3X c #7C8B85",
"4X c #748C8D",
"5X c #638197",
"6X c #4F8EA8",
"7X c #0D9FC5",
"8X c #0BA7CA",
"9X c #16A7C5",
"0X c #0CB9DB",
"qX c #14B3D4",
"wX c #2FBACE",
"eX c #13BDE0",
"rX c #45BBD2",
"tX c #1AC8DE",
"yX c #2BC4D9",
"uX c #0CC7E7",
"iX c #16CAE6",
"pX c #0ED6EE",
"aX c #09DAF3",
"sX c #2FD7ED",
"dX c #08E2F6",
"fX c #13E7F8",
"gX c #46C7D9",
"hX c #5DC9DA",
"jX c #4ED0E2",
"kX c #819683",
"lX c #ECB082",
"zX c #FEB483",
"xX c #FAB887",
"cX c #FFC28E",
"vX c #91B9C5",
"bX c #9AC9D3",
"nX c #A2D4DF",
/* pixels */
"#X#XOX$X$X).+.>.=.=.#.$.~.L.c c v.C.D.OX}.}.@XB.} &.] B ' =.=.=.>.$.I.$X$X$XOXOXC.OX{..XL.x V J.",
"C.XXOXOXOX/...o. .X.#.$.I.V ~ u v.V.XXoX}.m.8 9 ; _ v ] ' =.=.'  .<.!.#X#X@XOX@XC.C.[.&XZ ~ ~ Q.",
"#XoX|.{.OXZ.Z G S.U.+.%.P.J.u i Z.oX|.[.k.5 @ # & @ - c ` *.' @.T.S.#X#X#XXX{.|.oXF.V.oXK.u y ~.",
"C.OX|.{.OXV.W.v.OX(.| [ B.OXG.D.C.V.c.5 @ # , % , , # @ % _ o.[ !.XX#XXXOXOX{.|.OX$XC.OX#XD.Z.XX",
"OXV.OXoX|.=XOXC.$X$XQ.Q.[.|.OXOXXX1 O @ # # , w w w , @ @ 5 P.Q.D.XXC.XX{.}.@X@XOX$X$XOX$XOXC.XX",
"$XC.C.OX|.|.OXC.OXOX$XOX|.|.OX$XXX1 o o + + @ # # , @ @ + + k.XXXXXXXXXX{. XXX#XOX$XOX$X$X$X$X#X",
"OXOX|.%XoX@XOXF.OXC.OXC.OX@XOX$XXX1 o o . o o o . o o o o o 1 ].XXC.XXXX{. X{.{.OXC.%X=X&X$X$X$X",
"D.oX|.|.OX$X$XOXC.F.$XOXC.C.$X$XXX< o X X . . .   . o X X X o b.oXXXXXXX{. X X X@XOX|.|.OXOX$XOX",
"OXOX@X+XC.D.XXOX%X[.OXOXXXXX%X{.&X7 X P t.r.<.F F F <.r.t.; O N.%X%XOXC.|.|.+X+X#X#X@X@XH.6.9.9.",
"$XOXOXOX$XXXXXOX|.|.OX$XXXoX|. X|.c.% u.D y u s.s.u y Z p.A > XX|.|.OXOX{.7X@X#X#X@XXX#X`.%.*.&.",
"OX(.6.3XD.#XD.OX&X%X&X&XXXOX+X%X*XY.; y.D $ ; s.xXD $ z zXA e `.=X=XOXC.{. X%X@X@X#X@X+XH.X.>.#.",
"OXR.>.e.S.OX$XOXOX$X&XOXXXXXC.XX).t.z i.s.$ D cXcXs.$ D zXA S -X&XOXD.#X|. X X X@XXX|.7XH.%.*.#.",
"OXR.#.| S.#X#XC.C.C.@XA.4X3XA.XX!.t.m p.s.z r.cXxXlXz r.p.L L E.XXC.OX&X{.}.[.+XXXXX+X{.*X4.1.%.",
"#X/.1.4.D.#XXXXX$X$X@X(.;.,.).XX$XT.J p.xXh.xXxXxXzXlXzXzXU -Xv.$XOX&X&X[.}.oX#X#XXX#X#X$X$XA.e.",
"&X$XD.D.D.XXXXXXOXXXC.S.3.3.~.XXC.C.T.u.zXh.u.d.p.p.d.zXh.J C.XXOXXXC.C.[.[.+X@XXXOX#XXXA.5XkX$.",
"&X&X#XXX#XXX$X$X$XD.OX$XC.F.XXOXC.#XI.y.h.h.f.f.f.f.zXh.p.-X}.}.XXXXXXOXXXXX%X}.@X#X$X#X`.e.#.' ",
"XXV.XXXXXXOXOX#XXXXXOXOXOXoXXXD.C.C.D.-Xt.t.q.L I I t.t.S !.=X|.@XOXXXOXOXV.%X{.oXF.OXOX_.X.#.O.",
"}.|.}.|. X{.XXXX$XXXF.XX{.|.OX#XC.C.m.b.x.q s s s s y x.b.b.V.OX|.|.OXC.|.|.oXOX$X$X$XXX_.2.[ v ",
"}.}.}.|.}.{.@XXX$X$X#XOX{.|.oXC.N.n.9XyXjX1Xp S P Z 6XjXgX9X;XN.[.|.@XOX{.|.oX#X$X$XXX#XXXZ.Q.J.",
"}.}.oXXXXXoX{.[.OXOXOX#XOXoX%Xm.;XwXhXsXsXfXiXyXwXtXiXyXgXhXwX;Xb.XX{.{.oXXXXX#X$XOXD.OXXXXXXXXX",
"}.{.XXXX$X@X|.{.OX$X$X$X#X$X=Xx.9XgX8X0XaXaXfXdXdXpXyX1X<X<XrXwXk.B.=X|.OX#X#XXXOX$XF.OX$X$XXX#X",
"oXoXXXD.$X$X@X+X{.%XOX#X#X#XI.P a :Xn.8XuXaXdXaXdXtXbXvX:Xz.:XP.S -XXXoX%X{.XXC.&X&X%X|.OXC.C.$X",
"$X$XXXOX$X$X#X$X7X|.OXOX$X$XJ d.I t M.7X0XaXaXaXpXtXnXnX:Xb.9 A zXt.~.XX|. XoXC.@XV.|. XoXXXOX$X",
"OXXX$X`.9.9.7.kX$X*X6.6.S.~.u.zXU K.[.7X0XuXuXuXuXqX9X<X:X5.2.B zXp.'.%X X}.XXC.OX$X@X+X+X%XOX#X",
"XXOX$X).;.=.>.%.~.`.%.%.(.^.p.h.J {.oX>X8X0XeXiXqXqX9X<X:X` =.{ p.h.E. X X XoXXX$X$XXXXX=X.X+X@X",
"XX#X$X).;.>.#.%.4.6.@.+.4.7.p.g.H +XV.>X8X0X0XqX8X9X7X;Xl.4.;.{ p.p.E. X%X+X+X+XXX#XXXXX{..X(.( ",
"XXXXXX/.+.#.#.#.#.>.#.#.&.O.p.d.J C.OXn.8X8X8X8X9X<X<X;Xz.B.%.{ p.zX'. X@XXX}. XoXD.XXOX|.}.6.=.",
"I.U.5.6.:.@.o.o.' O.2.1.2.<.q.Y G +XV.n.,X8X8X,X>X;X;X:Xl.N.1.N Y i.'. XOXXX+X%XXXXXXXXX{. X8.=.",
"~ ) =.=.*.' N B #. .~.XX#XL.K K G {.XXj.z.;X;X;X;Xz.l.l.7 m.q x K K L. X@X#XC.XXOX$XXXXX{. X3X} ",
"u Z 3.| :.@.] ] @.$.( E.E.kXf.h.u.'.m.> & O 5 5 5 5 O & O m.a q.h.p.-X%X+X+X@X+XOXOXC.XX[. X%X@X",
"D.D.D.).@.>.:.#.#.&.#.#.#.a.h.u.U J m.* * * * r - : * * & b.R.U U f.7.C.|..X|.|.oXC.$XOX[. X}. X",
"$X$XOX(.w.| @.@. ...@.#.' O.i.-XK.T.l.= Q / / ^ / ^ ^ E = 0 ^.^.-Xi.-XXX=X{.{.{.OXXX$XOX[. X{.[.",
"D.#X$X$XD.T.%.$.^.U.;.*.#.o.H Y.OX#Xq R / / / ! W R E W R 6 ].oXI.Y.A.$XXXOXXXXXOX#XOXOX{. XoXOX",
"$X#X$X$XOX(.+.$.U.5X} X. .0.~.OX#X#Xq E / / E = = R W / R 6 V.V.$X$X#X#XXXOXXXOXOX$XOXOX[.{.@X#X",
"|.{.$XOX[.`.| X.e.w.U.~.H.H.$X$XXXXX6 R / / E 6 0 = ^ ^ E R N.$X$X$X$X$X{.{.{.{.@XOX{.}.oXOXOXOX",
".X|.OXOX7X{.H.B.Q.Q.Z.OX}.|.OX$XXXXXq : Q Q T q l.= R Q : t G.#X$X$X$X$X|. X}.}.XXOX{.}.XX#X#X#X",
"|.|.{.%X+X@X@XoXXXXX$X$XoXoX{.%XXXXXB.s d s % v.N.e s l d v /.OX%X|.$XXX{.|.+XoXC.OX{..X@X#X#X$X",
"}. X}.|.OX#X$XOXV.C.$X$XXXXX|.|.XXXXB.P I m x Z.D.i L q.q.] U.OX}. X@XOX}. XXXD.D.OX{..X@X@XOXOX",
"+X+X@X+X%X+XOX#XXXXXXXOX%X{.}.}.[.].^.y.h.p.J v.XXY.i.h.p.] U.OX@X@XOXOX{..X@XXXOXOXoX+XF.kX6.5.",
"$X#XOXXX}.}.$XOX#XOXXXV.}. X|.}.}.}.I.q.u.i.J D.XXL.q.u.y.S Q.$X#X#X#XOX|..XOX#X$X$X$X$X`.-.=.>.",
"XX`.5.5.kX4XF.C.OXXX+X+X%X[.|.}.{.+X8 3 y y e D.#X9 e i y 5 V.&XOXD.C.OX|. X+XoXOX$X#XOX`.X.*.>.",
"XXR.,.>.>.X.S.XXXXOX.X}.XXOX|.|.@XXXk.2 r 2 1 C.#X8 , r 2 < m.|.@XXX#XOX|. X X}.oXD.$X$X`.X.*.>.",
"oXU.:.>.>.X.S.C.XXOX|.|.XXXX%X%X#XXXk.2 2 2 9 C.@Xk., r r , 2X6XF.OXXXOX|. X{.{.oXoXOX#XS.9.3.@.",
" X6X,.>.>...S.XXC.OX|.|.oXOX$XOX#X#X8 2 2 2 k.D.|.m., 2 , 2 } +.).OX$XOX.X XoXOX{.}.oX#X$XD.S.e.",
" X6X:.&.#...~.$XC.OX{.=X/.).$X$XZ.L.C f 2 % 9 #X@XN.% % f x { o.U.OX#XOX|.|.oXoX{.{.OX$XF.`.).X.",
"@XR.:.#.'  .S.XXC.C.oX(.-.X./.C.G M M k j h i $XY.y h j k M M M K.$X#X#X}.}.|.|.@X#X#X_.!.w.+.:.",
"V.5X&.,.o.w.S.OXC.OXXX(.X.../.v.d j j j j g 4 F.u V g h j j j g J.@XOXXX{.{.|.|.oX#X`.a u $.>.>.",
"OX2X&.| U.Q.D.OX{.%XOXF./.P.D.Z.9 3 3 3 3 3 K.$Xw.} b b n n n V K.$X#XXX@X@XoX@X%X%Xa c / | #.#."
};
