/* XPM */
static char *cf2b8fe9ab6645d0da06339172a75884KGK93L5UnHdLlGT5[] = {
/* columns rows colors chars-per-pixel */
"48 48 153 2 ",
"   c #121317",
".  c #15171A",
"X  c #16191C",
"o  c #1B1C1D",
"O  c #221F1D",
"+  c #1F201F",
"@  c #23201E",
"#  c #171A20",
"$  c #1C1E21",
"%  c #1E2124",
"&  c #1E2329",
"*  c #232424",
"=  c #292624",
"-  c #2A2927",
";  c #232629",
":  c #26292B",
">  c #2B2B2B",
",  c #322C27",
"<  c #312E2D",
"1  c #2F302F",
"2  c #34312E",
"3  c #38332E",
"4  c #272C31",
"5  c #2B2E31",
"6  c #302F30",
"7  c #2D3134",
"8  c #2D3238",
"9  c #343433",
"0  c #3A3633",
"q  c #363837",
"w  c #3D3936",
"e  c #343639",
"r  c #36393B",
"t  c #3C3B3A",
"y  c #43352E",
"u  c #413B35",
"i  c #433E3A",
"p  c #483F38",
"a  c #503E35",
"s  c #45413D",
"d  c #4A433D",
"f  c #53453C",
"g  c #353940",
"h  c #3A3D41",
"j  c #3E4142",
"k  c #444341",
"l  c #4B4642",
"z  c #4B4945",
"x  c #454749",
"c  c #47484A",
"v  c #4D4B49",
"b  c #504741",
"n  c #534B44",
"m  c #5A4E45",
"M  c #524E4A",
"N  c #584F49",
"B  c #5C5147",
"V  c #55514D",
"C  c #5B534C",
"Z  c #4D4F50",
"A  c #555351",
"S  c #5B5652",
"D  c #5E5954",
"F  c #5D5A59",
"G  c #615247",
"H  c #61564D",
"J  c #65594E",
"K  c #6B5C4F",
"L  c #605752",
"P  c #635B54",
"I  c #6A5E54",
"U  c #645E59",
"Y  c #695F5A",
"T  c #705C50",
"R  c #6D6156",
"E  c #67605A",
"W  c #6C625B",
"Q  c #726255",
"!  c #72665C",
"~  c #78655A",
"^  c #75695D",
"/  c #7A6B5C",
"(  c #6D6661",
")  c #716761",
"_  c #756B62",
"`  c #7A6D62",
"'  c #746E6B",
"]  c #796F68",
"[  c #777067",
"{  c #7B7067",
"}  c #7E7165",
"|  c #7A7068",
" . c #7E7369",
".. c #7F746B",
"X. c #7E7472",
"o. c #816D5E",
"O. c #81705F",
"+. c #826E60",
"@. c #807164",
"#. c #827365",
"$. c #857365",
"%. c #897666",
"&. c #8C7866",
"*. c #817568",
"=. c #81756B",
"-. c #83766A",
";. c #84776E",
":. c #82786E",
">. c #86796D",
",. c #86796F",
"<. c #8B7B6C",
"1. c #887B6E",
"2. c #927F6F",
"3. c #867B70",
"4. c #877B70",
"5. c #8B7D72",
"6. c #8D7E71",
"7. c #8D7F74",
"8. c #837978",
"9. c #93816E",
"0. c #8E8173",
"q. c #8F8075",
"w. c #948373",
"e. c #938376",
"r. c #998674",
"t. c #988676",
"y. c #9C8976",
"u. c #948679",
"i. c #978678",
"p. c #96887B",
"a. c #9D8B79",
"s. c #9C8B7B",
"d. c #9E8B7A",
"f. c #A08774",
"g. c #A28C76",
"h. c #A18B7B",
"j. c #A28D7B",
"k. c #A88F7A",
"l. c #A5917D",
"z. c #AB937D",
"x. c #9D8C81",
"c. c #A59381",
"v. c #AA9582",
"b. c #AE9985",
"n. c #A7958B",
"m. c #AA9689",
"M. c #AB9A89",
"N. c #B39C85",
"B. c #B89B87",
"V. c #B49F89",
"C. c #BBA492",
"Z. c #C2A891",
"A. c #CEB098",
/* pixels */
"R $.h.` ! W 9 M W W _ ` P w / } U F D F D D E W r 0 / i.q.5.>.-. .;.5.w.q.( j 8 n #.-.W Y W ( ( ",
"! G 0 9 0 9 ; s W _ {  .z 2 / W A A V M v v V k : 9 R -.w.6.;.-.-.3.5.q.' c h 8 d ` _ Y W ) _ W ",
"R d O O @ @ * > t M D P 5 > P V M M V v t q 9 > % * I ^ ` ..{ | _ _ W D t 8 4 ; 2 n 0 9 k M V l ",
"< , = @ @ @ o o o o o o . * < > 9 9 < > * o o - > < u - * = - > - = * @ + : 9 9 0 9 * - * o o o ",
"} } V q 9 8 4 ; $ o : 4 s W L q 7 4 * % 4 : 0 a.0.>.! C i $ X & : % o 7 L -.1.5.3.:.:.[ v * s z ",
"` ^ } _ D x e 8 ; 9 P Y ` } _ W P A 4 9 D V d t.6.7.7.-.W > & x F r > #.a.i.5.-. ...| U j > U Y ",
"^ -.1.-.` L 9 : % n ! ! ! ^ ! _ -.W ; s >.! i ^ ! ) P S D : k W M r > &.w.>. ._ _ | ( A 8 * V Y ",
"d n s 3 = O o % X < 0 u d d u u d 9 $ w N l i u 0 < @ o * $ d 2 * o % s i 9 9 9 9 9 9 q 9 > < 0 ",
"w * o ; 5 % R t._ y.a.a.y.w.9.1.%.#.R n &.t.l.b.a.5.U z : C 1.} W C M i > > : $ . * I >.y.1.W U ",
"-.M ; l z > 1.b.c.c.b.c.t.6.t.a.l.c.` 3 &.g.g.j.6.| U F e I 1.1. ._ _ W V h e 4 $ n t.y.a.6.| ( ",
"#.R > H H : 1.j.i.t.a.i.w.w.w.w.6.5.W < o.f.w.W E ( U F 4 n #.1.;. ._ _ ^ P V e > / t.t.` V A Z ",
"I C $ n C * ` c.a.e.>. .-.} ^ W P P S = T I k 9 r t z v : s / ! W E Y W ! ! P > < / ^ C t r t r ",
"f w * w < > B I l 0 9 9 9 9 1 2 1 2 > o 3 * * * - > : : $ < w > : : : 2 t w 9 ; > u * * * > > > ",
"%.} ` #.#.#.! C s * n C d $ l / } ` P W L i $ ; $ * 9 w l L I I C s > / 1.#.#.` W V q ; X % : : ",
"#.^ ! _ ` _ ^ ^ C > ! ^ L 0 z.Z.Z.v.6.6.1.Y * 8 ; n ! W _ #.1.w.1.C 2 1.6.-.-.` W U D k % 8 j j ",
"H W ! ^ _ ` _ ! n > ! ` P w w.t.6.{  .3.-.k % q > N I P W W _ -.#.i * ! _ _ _ ` W D A e $ 9 Y D ",
"0 w s l n n n l * o w w 9 O < < 9 9 0 i t ; o > * u 0 w d n C H d * o 2 > 9 9 w w 9 < % o 9 L S ",
"/ I R R i * n ! / ^ C n C H B d < $ o d Q #.%.} ^ ! I R R 0 o < w i d d i 9 * . @ H 1.-.#.>.>.>.",
"l.t.i.x.P < ~ 1.w.w.1.-.1.w.6.1.W t * K &.a.N.j.>.1.t.i...r > 1.w.1.1.1.1._ M 9 3 %.1.} -.| |  .",
">.1.5._ k < Q -.1.-.-.} #.-.1.1.P k - J %.2.t.` _ } ;.-.W 8 9 %.w.6.6.6.6.` S k < Q } W z t k v ",
"l k s q 9 > I #.-.-.-.#.} -.-.^ v q * B ! R V k z A Y W D 9 > H R L V M M l z k - J P k q q r r ",
"* * * * * o u w 3 2 w u w 2 - o o o O 3 > - : > > > : > 9 > * > @ o o o o o o * = 0 > > > > : : ",
"n 9 % X > w ; X < / w.1.` ^ / ! ^ #.1.^ l : % 7 4 o > I -.-.0.w.1.%.n - d l V L ! C 0 4 ; X > 8 ",
"-.Y : % C 2.^ l N z.t.1.>.-.1.` E ^ { _ k 4 5 W W > C 2.-.>.5.p.i.i.Y 0 ` -.-.` ! W Y V j * J P ",
"-.W : * B ` } s i %.-.#.} } } D S Y W D 9 : 0 -.;.s n `  .-.>.5. .` z 9 ! ` ` ) W W W W l > W W ",
"n n % o 2 w 7 ; * b W ! ! W V k s s i < $ X 0 -.>.l w P P D M z V P > > N n M D Y W W L t % i z ",
"s n n n n n d s u = * > 9 9 > ; * % o u n l C C l d s 2 * * * * * ; $ * < - * * * : > > 9 i s w ",
"v.l.t.a.l.a.t.#.L > 9 r r r r r h j * / z.h.w.w.1.#.! S 9 % 4 r r g h M P P C > n _ -.q.5.0.q.6.",
"&.1.6.0.>.-.-.E L 2 B R W P A V P M * Q %.` `  .>.` W V 8 ; W _ Y U W W W ! W > ^ b.M.M.q.-...| ",
"#.! A z z M M z t * n B n i s n C > * J ! P P P P M t > $ $ d l v M C V C I V % n W E P D W W E ",
"0 > * * : * * : % o < = * * > < < > > u > * * - > * o . 0 P H n B J J C n l t < > * * : : : > > ",
"D V k 4 $ X ; 4 7 8 l P n s 2.1.! W W C 9 : > #.t.t.} 0 w.V.v.c.b.b.a.w.e.t.t.>.0 i 5 % X i L A ",
"1.1.W V % ; r v S V ! $.C 2 Q ^ P I W W L V u a.v.a.E 9 %.t.6.6.w.w.1.3.3. .{ _ 9 C S e % I ` W ",
"M L ^ 1.! < > s C H I R i - n N L I I I P C 0 ^ V z z > W a.w.-.` ` ` ` _ _ ) ( 0 i n k * l L v ",
"B k.A.C.Y 9 o . * 0 s d 0 u u , < 2 2 > 2 - - 2 7 9 7 * i C l t q 0 0 q q q t k % * > s W a.-.h ",
"f.z.B.1.9 * 5 % n g.l.t.9.t.w.9.1./ s > R ` / n 9 8 8 8 r > % 7 8 ; d W P C M M z C J &.C.n.X.( ",
"o.~ 2.U 4 > 4 ; n #.#.-.1.w.w.1.` V e > I / ` ^ W P A x v r : v k 9 ^ c.a.>...:.] U C m w.x.8.' ",
"#.Q &.A 5 > : % d ^ #.1.w.w.} V k t r * B I ! ^ ` -.-.P V t > R W l I -._ _ _ _ Y D n a T w.X.F ",
"+.Q C 9 > = $ . u J ! ! R D k t r e 5 o w u i n V V d w k 7 % l s < i M z z z k t t 9 y f G l 5 ",
"n 2 = - = o . # < = * > > > : > > > > 9 s 2 % * % $ $ > 9 9 i d i u i < * * ; * % $ $ < u i > ; ",
"#.t * % 4 8 8 r C < t r : % n #.-.} } 1.-.l * t r ; 9 ^ / ! ` #.` ! P M : & e 4 # : n R n 9 7 8 ",
"` v ; % 8 e e k C < L P q i t.a.#. . . .A 7 o l S 6 0 J P L I W W I P k ; 9 W V : d J C M l 9 8 ",
"S v % # ; : 4 t p.u.W S 0 > ! } ` -. .P 4 $   9 d * < d n n M V C L M > $ 0 k > C O./ Q I R V e ",
"t 9 % X . X $ s b.m.M l l n u * > t 9 > 0 i n N d i d i 2 - * = - 9 9 < < w 0 - K &.a.w.1.6.>.Y ",
"! S j r : % g W P l P 1.w.t.E % 4 : $ R g.l.h.t.1.` I P V 9 d ! R ! ` ` ` ` P 9 n Q #.#.} _ ( ( ",
"W W P A q > ) } W D P Y W ! c : k 9 % C &.` ! W W Y P S M > i ! ! ` _ W Y W S 9 p Q / } _ D S D ",
"P W W W k < I D V V A L P P j ; l z ; u B B V P Y Y Y D M : 2 n C Y P S P U v * 0 I C V M V A V ",
"9 k M V 9 > s l M M M z l k 8 % ; 4 % 0 n t 9 i z A V V v * * > > > > 9 i l > . 0 n t 9 q q r e "
};
